<svg width="84.566" height="117.525" viewBox="-2 -2 84.566 117.525" xmlns="http://www.w3.org/2000/svg">
  <g id="svgGroup" stroke-linecap="round" fill-rule="nonzero" fill="#000000" stroke="#000000" stroke-width="0.5">
      <path d="M46.472 77.637L46.472 77.234L47.278 77.197L47.278 77.600L47.681 77.600Q48.376 77.600 50.098 78.369L50.098 78.369L50.098 77.966Q43.103 75.146 42.883 74.084L42.883 74.084L43.286 74.084Q47.021 75.623 48.486 75.586L48.486 75.586L48.889 75.586L48.889 75.183Q45.667 74.341 42.078 71.301L42.078 71.301L40.063 72.144Q37.244 72.180 34.058 67.017L34.058 67.017L34.058 66.211Q34.058 64.307 36.072 62.988L36.072 62.988Q32.849 54.639 32.849 53.027L32.849 53.027L32.849 52.625Q32.849 49.072 38.452 47.314L38.452 47.314L40.869 47.278Q41.272 47.278 42.883 50.024L42.883 50.024L53.284 46.252Q55.078 46.472 60.498 52.551L60.498 52.551Q62.512 54.895 62.512 55.701L62.512 55.701L62.915 55.701L62.915 38.892Q58.484 39.771 43.286 44.019L43.286 44.019L40.466 43.689Q40.466 44.385 36.877 46.143L36.877 46.143Q36.877 45.337 36.072 45.337L36.072 45.337L35.266 45.776Q35.266 44.971 34.863 44.971L34.863 44.971L32.849 45.410L33.655 44.202Q30.908 44.641 30.066 45.044L30.066 45.044L30.469 47.058L30.469 51.855L32.043 53.430L30.872 57.458L30.872 79.102Q28.857 87.964 22.046 88.074L22.046 88.074L21.643 88.074Q17.908 83.350 14.832 83.386L14.832 83.386Q7.581 80.823 7.214 79.102L7.214 79.102L7.617 79.102L11.609 80.640L11.609 80.237Q5.786 76.904 4.797 75.549L4.797 75.549Q9.338 76.685 9.998 76.648L9.998 76.648L10.803 76.648L10.803 76.245Q4.797 74.341 4.797 73.132L4.797 73.132L5.200 73.132Q17.322 77.344 20.837 77.271L20.837 77.271Q22.046 74.854 22.046 68.848L22.046 68.848L22.046 62.036Q12.598 69.800 9.631 69.836L9.631 69.836Q6.921 69.910 3.589 63.940L3.589 63.940L3.589 63.538L6.409 63.501L6.409 63.098Q3.845 62.329 3.186 62.366L3.186 62.366L3.186 61.963L5.200 61.926Q5.200 61.121 3.589 61.157L3.589 61.157L3.589 60.754Q6.482 60.681 21.643 52.002L21.643 52.002L21.240 49.219L21.240 48.010L20.837 48.010Q15.967 50.500 14.429 50.537L14.429 50.537Q14.026 49.768 14.026 49.329L14.026 49.329L12.012 50.171L12.012 49.365L12.817 48.157L10.803 48.596L8.423 48.633L9.998 47.021L6.409 47.461Q5.676 47.498 2.014 46.765L2.014 46.765L2.014 46.362Q9.412 46.216 17.615 38.452L17.615 38.452Q13.696 35.742 12.012 35.742L12.012 35.742Q11.682 35.779 8.826 36.621L8.826 36.621L8.826 36.218Q10.400 32.849 10.400 32.593L10.400 32.593Q9.998 32.593 9.998 32.190L9.998 32.190Q7.874 33.435 6.409 33.435L6.409 33.435Q6.812 32.666 6.812 32.227L6.812 32.227L6.409 32.263L3.992 34.277L3.992 33.911Q5.713 29.846 9.229 29.810L9.229 29.810Q14.575 27.283 15.637 27.283L15.637 27.283L22.852 30.762L23.254 28.748L23.254 27.539Q23.254 25.745 20.837 22.778L20.837 22.778Q22.046 22.778 28.455 21.057L28.455 21.057Q35.669 23.438 35.669 28.528L35.669 28.528Q35.669 31.055 31.641 33.398L31.641 33.398Q29.260 35.889 29.260 37.463L29.260 37.463L29.260 37.866Q30.103 37.830 32.043 33.801L32.043 33.801L32.849 33.801L32.849 34.204Q32.849 35.083 29.663 40.649L29.663 40.649L30.066 43.066L30.469 43.030Q33.289 42.993 38.452 27.283L38.452 27.283L38.452 26.880Q37.903 26.880 36.877 24.902L36.877 24.902L36.877 24.500Q38.269 24.463 40.466 21.643L40.466 21.643Q41.455 20.801 42.078 20.801L42.078 20.801Q51.709 24.756 51.709 26.660L51.709 26.660Q51.709 27.979 46.875 33.948L46.875 33.948Q62.476 29.736 62.915 28.052L62.915 28.052Q74.927 32.117 74.927 34.644L74.927 34.644Q75.476 34.644 78.552 39.404L78.552 39.404Q75.330 41.382 75.330 46.655L75.330 46.655Q72.290 60.242 69.324 83.240L69.324 83.240Q63.574 89.758 58.923 89.832L58.923 89.832Q57.349 89.868 52.112 81.921L52.112 81.921Q47.278 78.113 47.278 77.600L47.278 77.600L46.472 77.637ZM68.115 68.445L67.712 68.445Q67.712 70.459 67.310 74.451L67.310 74.451L67.310 75.659L67.712 75.659Q67.712 75.146 68.115 71.631L68.115 71.631L68.115 68.445ZM28.857 68.701L28.455 68.738L28.455 74.341L28.857 74.341L28.857 68.701ZM28.052 63.538L27.649 63.538Q27.649 67.346 27.246 72.766L27.246 72.766L27.246 73.535L27.649 73.535L28.052 69.543L28.052 66.321Q28.052 65.918 28.455 65.918L28.455 65.918Q28.052 65.332 28.052 63.538L28.052 63.538ZM67.310 62.036L66.943 62.036Q66.138 72.546 66.138 74.084L66.138 74.084L66.138 74.487L66.541 74.487Q67.310 70.898 67.310 64.856L67.310 64.856L67.310 62.036ZM58.118 62.183L58.118 62.183L58.118 62.585Q59.729 64.343 59.729 64.563L59.729 64.563L59.729 64.966Q59.729 69.763 47.278 69.983L47.278 69.983L43.286 70.862L43.286 71.265Q55.554 75.073 59.729 75L59.729 75Q61.890 74.963 62.512 58.118L62.512 58.118L61.707 58.118Q60.681 58.521 58.118 62.183ZM43.286 56.030L43.286 56.030Q44.092 59.619 44.092 61.230L44.092 61.230L44.092 61.633L46.069 62.000L45.667 61.194L45.667 60.828L47.681 61.194L47.681 59.985L49.292 60.754Q51.306 60.168 51.306 57.898L51.306 57.898Q51.050 54.309 50.098 54.309L50.098 54.309Q49.548 54.346 43.286 56.030Z" />
  </g>
</svg>