<svg width="84.566" height="117.525" viewBox="-2 -2 84.566 117.525" xmlns="http://www.w3.org/2000/svg">
  <g id="svgGroup" stroke-linecap="round" fill-rule="nonzero" fill="#000000" stroke="#000000" stroke-width="0.5">
      <path d="M61.194 84.009L61.194 84.009L62.805 83.972Q62.805 83.167 62.000 83.203L62.000 83.203Q61.194 83.350 61.194 84.009ZM62.000 82.361L55.920 82.544L55.920 82.947Q57.129 82.910 58.740 83.276L58.740 83.276Q60.315 82.837 62.000 82.800L62.000 82.800L62.000 82.361ZM42.078 74.414L41.638 74.414L41.675 77.271L42.480 76.831L42.480 77.637L43.323 77.600Q42.078 75.623 42.078 74.414L42.078 74.414ZM40.027 72.437L40.027 72.437L40.027 74.048Q40.173 74.854 40.833 74.854L40.833 74.854L40.833 71.594Q40.027 71.741 40.027 72.437ZM39.990 70.825L39.990 70.825L39.990 71.228L40.833 71.191L40.796 69.983Q39.990 70.129 39.990 70.825ZM40.393 68.774L39.990 68.811L39.990 69.617L40.393 69.580L40.393 68.774ZM55.042 76.501L55.042 76.501L55.847 76.465Q56.506 76.428 61.450 67.822L61.450 67.822L62.256 67.786Q62.256 69.434 58.264 75.989L58.264 75.989L58.667 75.989Q64.673 75.439 65.149 73.792L65.149 73.792L65.149 72.583Q65.112 71.118 63.867 65.332L63.867 65.332Q60.681 65.405 55.042 76.501ZM65.039 64.087L65.039 63.281L65.442 63.245L65.442 64.050L65.881 64.050Q67.126 67.969 67.126 68.884L67.126 68.884L67.529 68.884L67.493 66.833L67.932 66.833Q72.034 76.025 74.890 75.952L74.890 75.952L75.293 77.966Q75.366 82.947 67.676 86.279L67.676 86.279Q67.273 86.279 67.273 85.876L67.273 85.876L65.259 86.353L53.101 86.682L50.281 86.353Q43.799 93.787 39.001 93.933L39.001 93.933L39.001 92.725Q38.306 92.725 36.584 93.604L36.584 93.604L36.548 93.164Q37.354 91.846 37.354 91.150L37.354 91.150Q35.889 91.992 34.131 92.029L34.131 92.029L32.520 92.065L34.900 89.575Q32.117 90.454 30.066 90.527L30.066 90.527L25.598 90.637L25.598 90.234Q29.077 89.722 37.683 83.020L37.683 83.020Q36.877 81.482 36.841 78.589L36.841 78.589L36.731 66.467Q36.658 59.985 35.449 60.022L35.449 60.022Q31.421 76.868 23.914 84.192L23.914 84.192Q20.288 87.158 18.274 88.403L18.274 88.403Q18.274 86.792 17.468 86.792L17.468 86.792Q17.468 87.378 16.260 88.074L16.260 88.074L15.857 88.074Q15.857 87.378 16.626 85.620L16.626 85.620L16.223 85.620Q16.260 86.829 11.792 87.378L11.792 87.378L13.806 84.888L13.403 84.888Q10.767 86.572 7.324 86.682L7.324 86.682L5.713 86.316L5.713 85.913Q13.367 85.693 24.500 58.667L24.500 58.667L26.074 53.394L25.671 53.394L14.355 58.557L13.953 58.557Q9.741 58.667 6.592 50.647L6.592 50.647Q6.555 46.619 15.015 42.334L15.015 42.334Q15.820 42.737 16.260 42.700L16.260 42.700L15.857 43.542L16.663 43.506L16.663 43.909Q15.454 43.945 15.454 44.751L15.454 44.751Q15.857 44.751 15.857 45.154L15.857 45.154Q28.821 42.773 28.784 41.968L28.784 41.968Q29.956 36.914 30.688 28.564L30.688 28.564Q30.688 25.964 27.393 22.156L27.393 22.156L35.046 17.908Q42.371 20.361 42.407 23.804L42.407 23.804L42.810 23.767L43.213 22.961Q42.810 22.961 42.810 22.559L42.810 22.559L44.019 22.522L43.579 21.716L45.630 21.277L45.190 20.471L45.190 20.068L46.838 20.032Q51.270 19.922 57.825 26.221L57.825 26.221Q58.630 26.880 59.070 32.263L59.070 32.263Q58.044 36.731 55.078 36.804L55.078 36.804L55.078 37.207L55.481 37.207Q59.949 36.292 61.157 35.449L61.157 35.449Q68.445 38.306 68.481 41.711L68.481 41.711L68.518 43.323Q68.555 47.644 64.087 49.109L64.087 49.109L63.684 49.146Q57.422 48.486 51.526 48.633L51.526 48.633L48.706 48.706Q37.354 49.036 37.390 51.050L37.390 51.050L43.469 50.903Q46.509 55.920 49.182 57.202L49.182 57.202Q49.585 57.202 50.024 58.411L50.024 58.411L46.033 65.002Q45.264 68.811 45.264 71.082L45.264 71.082L45.703 73.901Q50.061 69.287 51.672 62.000L51.672 62.000L51.636 60.388Q51.636 57.568 49.182 54.785L49.182 54.785Q56.836 52.148 58.044 52.112L58.044 52.112Q64.966 54.639 65.039 62.036L65.039 62.036L65.039 62.439L64.233 63.684L64.233 64.087L65.515 68.518L65.918 68.518L65.918 68.115L65.479 64.453L65.442 64.050L65.039 64.087ZM43.213 25.378L42.810 25.378Q42.847 29.480 40.027 31.531L40.027 31.531L38.892 36.841L40.869 34.351L40.869 34.753Q40.906 35.596 39.734 40.466L39.734 40.466Q52.222 37.683 53.870 37.646L53.870 37.646L53.870 36.841Q50.940 35.706 50.208 35.742L50.208 35.742L45.740 35.852L45.740 35.449L46.545 34.204L45.740 34.241L45.740 33.838L46.143 32.996Q45.337 33.032 45.300 32.629L45.300 32.629L46.106 30.981L44.897 31.018L46.106 28.967Q43.250 26.294 43.213 25.378L43.213 25.378Z" />
  </g>
</svg>