<svg width="84.566" height="117.525" viewBox="-2 -2 84.566 117.525" xmlns="http://www.w3.org/2000/svg">
  <g id="svgGroup" stroke-linecap="round" fill-rule="nonzero" fill="#000000" stroke="#000000" stroke-width="0.5">
      <path d="M39.221 82.910L38.818 82.910L38.818 83.350L39.661 87.561L40.063 87.524L40.063 85.840L39.221 82.910ZM26.147 73.425L25.305 73.462L25.305 73.865L26.147 73.865L26.147 73.425ZM40.063 71.521L39.661 71.521L39.661 82.068Q39.771 82.910 40.503 82.874L40.503 82.874Q40.503 82.471 40.906 82.471L40.906 82.471L40.503 80.347L40.503 79.944Q40.503 77.197 40.063 71.521L40.063 71.521ZM57.349 69.507L57.349 69.507L57.349 69.946L67.493 69.763Q67.493 68.921 66.650 68.921L66.650 68.921Q63.684 68.994 57.349 69.507ZM65.369 66.833L62.439 67.310L62.439 67.749L64.966 67.712Q65.186 67.712 66.650 67.236L66.650 67.236L66.650 66.833L65.369 66.833ZM60.754 66.101L60.754 66.101L60.754 66.504L64.124 66.467Q64.966 66.431 64.966 65.588L64.966 65.588L64.124 65.625Q63.757 65.625 60.754 66.101ZM23.181 59.985L23.181 59.583L24.023 59.546L24.023 59.985L23.181 59.985ZM21.497 58.337L21.497 58.337L21.936 58.337Q21.936 59.180 21.094 59.180L21.094 59.180L20.654 59.180Q20.801 58.337 21.497 58.337ZM56.104 56.030L56.104 55.627L56.946 55.627L56.946 56.030L56.104 56.030ZM57.349 55.188L57.349 54.749L58.191 54.749L58.191 55.151L59.033 55.151Q59.253 55.151 60.754 55.554L60.754 55.554L61.157 55.554L61.157 55.115L60.315 55.115L60.315 54.712L61.157 54.712Q71.191 57.971 73.828 62.915L73.828 62.915L73.828 65.442Q73.828 69.397 67.896 70.166L67.896 70.166L58.630 70.349Q53.796 70.422 43.872 71.008L43.872 71.008L43.872 71.448Q43.872 81.226 44.714 92.102L44.714 92.102Q42.297 97.632 37.097 97.705L37.097 97.705Q32.886 96.094 32.886 91.882L32.886 91.882Q34.570 87.927 34.570 84.668L34.570 84.668Q34.570 81.702 34.167 72.473L34.167 72.473L24.023 74.744L23.621 74.744L23.621 75.183L22.339 75.183L22.339 75.623L21.094 75.623L21.094 76.062L19.812 76.099L19.812 75.659L21.094 75.623L21.094 75.220L22.339 75.183L22.339 74.780L23.621 74.744L23.621 74.341L24.866 74.304L24.866 73.901L23.621 73.901Q14.319 76.831 13.477 78.296L13.477 78.296L13.477 78.735Q18.530 76.099 19.409 76.099L19.409 76.099L19.812 76.099L19.812 76.501L12.231 79.578Q6.738 77.380 6.738 71.667L6.738 71.667L6.738 70.825Q18.164 59.253 20.654 59.180L20.654 59.180L15.161 64.343L15.601 64.343Q20.471 60.828 23.181 59.985L23.181 59.985Q16.443 64.270 15.161 66.870L15.161 66.870Q20.691 65.515 33.728 63.171L33.728 63.171L33.728 57.715Q29.260 59.033 26.990 59.070L26.990 59.070L25.305 59.106L24.463 59.546L21.497 57.495Q19.812 54.016 19.409 50.793L19.409 50.793Q21.094 51.599 22.339 51.563L22.339 51.563L22.778 51.563L22.778 51.160Q21.497 51.160 20.251 49.512L20.251 49.512L21.094 49.475Q21.899 49.915 22.339 49.878L22.339 49.878Q22.339 49.036 21.094 49.072L21.094 49.072L21.094 48.633L21.497 48.633Q22.559 48.633 24.866 48.999L24.866 48.999L33.325 48.010L32.886 43.799L32.886 42.114L32.043 42.114L24.463 43.945Q21.240 44.019 18.127 37.720L18.127 37.720L18.127 36.877Q18.127 33.105 24.866 30.872L24.866 30.872L24.866 30.432L23.621 30.469L23.621 30.029L25.305 29.590L25.305 29.187Q24.976 29.187 22.778 28.784L22.778 28.784L22.778 28.381L24.463 28.345L24.463 27.905L21.936 27.979Q21.936 27.722 23.621 25.818L23.621 25.818L23.621 24.573Q18.567 23.364 18.567 20.435L18.567 20.435Q22.559 18.237 26.147 18.201L26.147 18.201L26.550 18.201Q35.413 19.446 35.413 23.511L35.413 23.511L35.413 24.353Q35.413 28.271 29.517 31.641L29.517 31.641L29.114 31.641L29.114 32.043L29.956 32.043Q41.748 30.688 41.748 29.736L41.748 29.736Q40.320 29.407 39.221 27.246L39.221 27.246L39.221 26.404Q39.221 24.500 45.117 19.116L45.117 19.116Q45.959 18.018 45.959 15.308L45.959 15.308L46.802 15.710L48.083 15.710L48.083 15.271L46.399 13.184L46.802 13.184Q57.349 16.553 57.349 21.460L57.349 21.460Q57.349 22.595 50.208 28.748L50.208 28.748Q53.906 28.674 57.349 33.252L57.349 33.252L57.349 33.655Q56.433 38.745 48.926 38.892L48.926 38.892Q44.714 40.173 44.714 44.019L44.714 44.019L44.275 46.143Q51.013 45.154 51.892 45.154L51.892 45.154Q55.664 47.131 55.664 51.416L55.664 51.416L55.664 52.698Q55.664 55.225 45.117 55.408L45.117 55.408Q45.117 55.811 43.872 55.847L43.872 55.847L43.872 61.304Q50.208 60.791 53.137 60.754L53.137 60.754L62.000 60.571Q59.473 56.396 56.946 56.470L56.946 56.470L56.946 56.030L57.349 56.030Q58.081 56.030 59.912 56.836L59.912 56.836L60.315 56.799L60.315 56.396Q58.521 55.591 58.191 55.591L58.191 55.591L58.191 55.151L57.349 55.188ZM27.832 32.080L26.990 32.080L26.990 32.520L27.832 32.483L27.832 32.080Z" />
  </g>
</svg>