<svg width="84.566" height="117.525" viewBox="-2 -2 84.566 117.525" xmlns="http://www.w3.org/2000/svg">
  <g id="svgGroup" stroke-linecap="round" fill-rule="nonzero" fill="#000000" stroke="#000000" stroke-width="0.5">
      <path d="M42.297 84.119L42.297 83.716L43.103 83.716L43.103 84.119L42.297 84.119ZM39.038 81.335L39.038 80.933L39.844 80.933L39.844 81.335L39.038 81.335ZM62.549 75.256L62.146 75.293Q62.146 76.978 61.743 79.724L61.743 79.724L61.743 80.969L62.146 80.933L62.549 77.307L62.549 75.256ZM62.146 68.811L61.743 68.811Q61.743 70.459 60.498 79.761L60.498 79.761Q61.743 79.724 62.146 71.228L62.146 71.228L62.146 68.811ZM46.729 65.845L46.729 65.845Q55.664 68.665 55.664 73.352L55.664 73.352Q54.858 76.611 52.808 76.648L52.808 76.648Q44.348 76.392 41.089 76.465L41.089 76.465Q31.787 76.685 13.147 81.812L13.147 81.812L12.708 81.812Q10.034 81.848 7.471 76.648L7.471 76.648L7.471 75.842Q7.471 71.997 17.981 67.969L17.981 67.969Q18.713 68.335 19.592 68.335L19.592 68.335L19.592 68.738L18.787 68.738L18.787 69.141L19.592 69.141Q19.592 69.946 18.384 69.983L18.384 69.983L18.384 70.386L19.592 70.349Q23.438 70.276 46.729 65.845ZM22.852 52.478L22.449 52.478L22.449 54.529L23.254 54.492L22.852 52.478ZM28.125 46.729L28.125 46.729L26.477 55.664Q34.204 54.309 34.204 53.503L34.204 53.503L31.750 53.137L31.750 52.734Q33.801 52.405 33.801 51.489L33.801 51.489Q30.579 50.317 29.736 50.354L29.736 50.354L29.736 49.951Q33.362 49.878 33.362 49.072L33.362 49.072Q29.187 46.692 28.125 46.729ZM31.348 32.080L31.348 32.080L31.348 32.483L35.413 35.669Q35.413 36.658 32.153 39.368L32.153 39.368L32.153 38.562L31.750 38.562Q31.348 40.796 31.348 41.821L31.348 41.821L30.945 41.821Q30.139 39.661 30.139 39.404L30.139 39.404L29.736 39.404Q28.931 42.883 28.931 46.289L28.931 46.289L33.801 47.424L34.204 47.424L34.204 47.021Q33.875 47.021 32.153 46.252L32.153 46.252L32.153 45.850L32.556 45.850Q34.753 46.216 36.218 46.179L36.218 46.179Q41.895 46.069 41.895 33.948L41.895 33.948L41.895 31.897L41.492 29.883Q39.294 29.919 31.348 32.080ZM46.326 16.443L46.729 16.443Q57.678 20.361 57.678 25.562L57.678 25.562L57.678 26.770Q54.712 28.528 53.210 33.325L53.210 33.325Q53.210 34.167 47.974 51.233L47.974 51.233L48.376 51.233Q58.154 49.841 59.692 47.791L59.692 47.791Q68.079 49.988 71.448 54.456L71.448 54.456Q71.448 55.261 73.059 57.275L73.059 57.275L73.059 57.678Q70.679 59.473 67.383 67.493L67.383 67.493Q64.124 91.443 60.498 91.516L60.498 91.516Q56.433 94.519 53.210 94.885L53.210 94.885Q52.222 94.885 47.571 88.074L47.571 88.074Q43.103 84.485 43.103 84.119L43.103 84.119L43.506 84.119L45.117 84.485L45.520 84.485L45.520 84.082Q40.613 82.654 39.844 81.335L39.844 81.335L44.714 82.471L45.117 82.471L45.117 82.068Q40.356 80.640 38.635 78.113L38.635 78.113Q49.365 80.750 53.613 80.676L53.613 80.676Q55.884 80.640 58.081 62.805L58.081 62.805Q58.081 59.546 57.678 59.583L57.678 59.583Q43.835 61.816 21.240 66.687L21.240 66.687Q17.175 65.662 17.175 65.149L17.175 65.149Q15.161 60.388 15.161 58.704L15.161 58.704Q15.967 57.349 15.967 56.653L15.967 56.653Q15.564 56.653 15.564 56.250L15.564 56.250L15.967 56.250Q16.370 56.250 16.370 56.653L16.370 56.653Q18.787 56.616 18.787 50.134L18.787 50.134Q19.189 48.889 19.189 40.393L19.189 40.393L19.189 35.559Q16.772 33.545 16.772 33.142L16.772 33.142L16.772 32.336Q18.054 32.336 19.189 30.286L19.189 30.286Q16.956 27.795 14.758 27.100L14.758 27.100L14.355 26.331Q33.069 21.533 46.326 16.443L46.326 16.443Z" />
  </g>
</svg>