<svg width="84.566" height="117.525" viewBox="-2 -2 84.566 117.525" xmlns="http://www.w3.org/2000/svg">
  <g id="svgGroup" stroke-linecap="round" fill-rule="nonzero" fill="#000000" stroke="#000000" stroke-width="0.5">
      <path d="M36.987 76.868L36.584 76.868L36.584 78.040Q36.584 78.992 37.354 82.251L37.354 82.251L37.756 82.251L37.756 79.944Q36.987 77.197 36.987 76.868L36.987 76.868ZM37.756 73.389L37.354 73.389L37.354 76.868Q37.500 77.637 38.123 77.600L38.123 77.600L38.123 76.062L37.756 73.389ZM65.442 71.741L65.442 71.741Q77.380 76.025 77.380 81.152L77.380 81.152Q78.149 82.654 78.149 85.364L78.149 85.364Q78.149 87.671 74.707 90.051L74.707 90.051Q71.448 88.184 71.228 88.184L71.228 88.184Q68.738 89.026 67.749 89.026L67.749 89.026L68.518 87.085Q67.749 87.085 67.749 85.950L67.749 85.950L66.980 86.353L66.980 84.045L66.614 84.045L66.980 82.104Q62.000 76.062 60.461 76.062L60.461 76.062L60.461 75.293L61.230 75.293L61.230 74.890L60.828 74.158Q61.047 74.158 62.366 73.718L62.366 73.718L62.366 73.352L62.000 72.583Q64.893 71.777 65.442 71.741ZM26.587 69.360L26.221 69.360L26.221 74.744L26.587 74.744L26.587 69.360ZM25.818 64.746L25.452 64.746Q25.452 67.603 25.049 73.608L25.049 73.608L25.049 74.011L25.452 74.011L26.221 65.918Q25.818 65.149 25.818 64.746L25.818 64.746ZM52.771 55.444L52.368 55.444Q48.523 61.267 48.523 62.036L48.523 62.036Q48.926 62.036 48.926 62.439L48.926 62.439Q48.157 62.549 48.157 63.208L48.157 63.208L48.523 63.208Q49.182 63.208 54.675 62.329L54.675 62.329L54.675 61.560Q54.675 59.839 52.368 57.385L52.368 57.385Q53.320 56.580 53.906 56.580L53.906 56.580Q53.906 56.030 52.771 55.444L52.771 55.444ZM43.542 49.438L43.542 49.438L40.430 51.819L39.661 56.067Q40.063 56.726 40.063 57.568L40.063 57.568L40.063 60.645Q44.678 57.458 44.678 51.343L44.678 51.343Q44.385 49.438 43.542 49.438ZM58.521 34.167L58.521 34.167L58.923 34.167Q59.692 34.167 59.692 33.398L59.692 33.398L59.692 31.860Q59.033 31.860 58.521 34.167ZM46.619 26.697L46.619 26.697Q48.157 29.443 48.157 30.139L48.157 30.139Q42.224 37.061 40.063 40.649L40.063 40.649Q39.661 41.162 39.661 42.590L39.661 42.590Q40.540 42.590 41.199 42.957L41.199 42.957L41.199 42.554L40.833 41.785Q40.833 38.599 46.985 34.387L46.985 34.387Q47.754 34.387 47.754 35.522L47.754 35.522Q47.388 36.292 47.388 36.694L47.388 36.694L47.754 36.694Q54.456 35.010 55.078 35.010L55.078 35.010L54.675 34.241Q56.982 34.204 56.982 30.762L56.982 30.762L56.982 29.590Q56.616 29.590 56.616 29.224L56.616 29.224Q57.385 29.187 57.385 28.418L57.385 28.418L57.385 27.649L56.982 27.686Q53.650 30.432 51.233 30.469L51.233 30.469Q50.610 30.469 46.619 26.697ZM60.828 19.153L60.828 19.153Q68.518 19.995 68.518 24.792L68.518 24.792L68.518 25.562Q68.518 26.111 65.845 28.271L65.845 28.271Q65.845 27.905 65.442 27.905L65.442 27.905Q65.442 29.443 64.673 29.443L64.673 29.443Q64.673 28.308 63.904 28.308L63.904 28.308Q63.904 29.370 62.366 33.362L62.366 33.362Q68.408 32.080 74.707 30.066L74.707 30.066Q79.688 32.666 79.688 35.339L79.688 35.339L79.688 36.511Q79.688 41.492 73.169 41.638L73.169 41.638Q54.236 41.968 50.464 45.850L50.464 45.850Q50.464 46.472 53.137 47.754L53.137 47.754Q55.225 46.545 56.616 46.509L56.616 46.509L56.982 46.509L56.982 46.912L56.213 46.912L56.213 48.083L56.982 48.047Q61.267 47.974 66.614 44.421L66.614 44.421Q71.997 45.007 71.997 48.560L71.997 48.560Q71.484 51.123 69.287 53.979L69.287 53.979Q66.614 54.053 61.597 55.298L61.597 55.298L61.597 55.664Q63.428 58.337 63.904 60.645L63.904 60.645L64.307 60.608Q72.766 59.253 72.766 58.557L72.766 58.557Q75.037 58.521 78.552 63.464L78.552 63.464L78.552 64.233Q77.783 68.481 74.707 68.518L74.707 68.518L70.825 68.591Q61.597 68.738 61.597 70.276L61.597 70.276Q59.729 79.688 51.599 87.012L51.599 87.012Q51.599 85.840 50.830 85.876L50.830 85.876Q50.830 86.646 50.061 86.646L50.061 86.646L50.061 85.107Q48.669 86.279 47.388 86.316L47.388 86.316L48.523 84.375L48.157 84.375Q46.069 85.950 44.678 85.950L44.678 85.950L43.140 85.986L43.140 85.620Q49.731 80.859 52.771 72.729L52.771 72.729L52.771 71.594Q52.002 71.594 46.985 73.242L46.985 73.242Q43.433 73.279 41.199 67.163L41.199 67.163Q41.199 64.343 45.081 62.878L45.081 62.878L45.081 61.743L43.140 62.146L43.909 60.974L42.004 61.414L40.063 61.414Q40.063 71.155 43.140 84.851L43.140 84.851Q40.283 91.443 36.218 91.516L36.218 91.516L35.449 91.516Q32.080 91.553 31.604 86.572L31.604 86.572Q32.300 83.093 32.739 83.093L32.739 83.093L32.373 81.555Q31.604 65.881 31.604 58.887L31.604 58.887L31.201 58.887L30.432 59.290L28.528 58.923L28.528 80.090Q28.528 84.814 21.204 87.927L21.204 87.927L19.666 87.927Q17.249 84.229 11.206 82.690L11.206 82.690Q8.093 82.068 5.823 79.321L5.823 79.321L6.189 79.321L10.034 80.786L10.034 80.420Q4.065 77.124 3.882 76.282L3.882 76.282L4.285 76.282Q7.800 76.978 8.496 76.978L8.496 76.978L8.899 76.978L8.899 76.575Q3.772 74.963 3.516 73.608L3.516 73.608L3.882 73.608Q14.758 77.637 18.896 77.563L18.896 77.563Q20.068 75.806 20.068 69.873L20.068 69.873L20.068 63.318L19.666 63.318Q16.370 65.552 10.840 70.020L10.840 70.020L8.496 70.459L6.958 70.459Q4.541 68.811 2.344 64.783L2.344 64.783L2.344 64.380L5.054 64.343L5.054 63.977Q2.563 63.245 1.575 63.245L1.575 63.245L1.575 62.878L3.882 62.842L3.882 62.439L2.344 62.073L2.344 61.707Q5.420 61.633 19.666 53.320L19.666 53.320L19.299 49.475L12.744 52.295Q12.378 50.940 12.378 50.757L12.378 50.757Q10.803 51.563 10.034 51.563L10.034 51.563L11.206 49.622Q9.229 50.427 8.130 50.464L8.130 50.464Q7.397 50.061 6.958 50.098L6.958 50.098L6.958 49.695L8.899 48.889L8.899 48.523L5.054 48.962L4.651 48.962Q3.918 48.999 0.806 48.267L0.806 48.267L0.806 47.900Q8.313 47.754 15.820 40.320L15.820 40.320Q11.682 37.683 10.437 37.720L10.437 37.720Q7.983 38.525 7.361 38.525L7.361 38.525L8.899 34.680L8.496 34.680Q7.104 34.680 5.054 36.255L5.054 36.255L5.054 35.486Q5.420 34.753 5.420 34.351L5.420 34.351Q5.090 34.351 3.113 35.925L3.113 35.925L3.113 35.522Q3.113 32.849 12.744 29.993L12.744 29.993Q12.744 29.590 13.147 29.590L13.147 29.590Q14.246 29.553 20.837 32.922L20.837 32.922L21.204 30.981L21.204 30.615Q21.204 27.905 18.896 25.269L18.896 25.269Q20.215 25.232 26.587 23.584L26.587 23.584Q33.142 26.367 33.142 30.762L33.142 30.762Q33.142 33.105 27.759 37.024L27.759 37.024Q27.759 37.646 26.990 38.562L26.990 38.562L26.990 39.734L30.432 35.815L30.835 35.815Q29.370 39.807 27.356 41.638L27.356 41.638L27.759 45.483L27.759 47.021Q27.869 47.791 28.528 47.791L28.528 47.791Q35.815 30.212 36.987 26.111L36.987 26.111Q36.328 25.708 35.449 25.745L35.449 25.745L35.815 24.976L35.815 24.573L34.277 24.609L35.046 23.438L35.046 23.071L33.142 23.071L33.142 22.705Q35.449 21.497 43.140 20.618L43.140 20.618Q45.996 25.562 46.619 25.562L46.619 25.562L48.157 25.525L48.157 25.122L45.850 24.390L45.850 24.023L46.985 23.987Q46.985 24.390 47.388 24.390L47.388 24.390L47.388 23.987Q46.619 24.023 46.619 23.254L46.619 23.254Q52.698 23.145 60.828 19.153Z" />
  </g>
</svg>