<svg width="84.566" height="117.525" viewBox="-2 -2 84.566 117.525" xmlns="http://www.w3.org/2000/svg">
  <g id="svgGroup" stroke-linecap="round" fill-rule="nonzero" fill="#000000" stroke="#000000" stroke-width="0.5">
      <path d="M43.433 74.597L43.030 74.634Q42.590 79.871 42.590 80.127L42.590 80.127L42.590 82.654L43.030 82.617L43.433 76.721L43.433 74.597ZM40.906 68.738L40.503 68.774L40.503 81.409Q41.748 80.969 41.748 78.845L41.748 78.845L41.748 76.758Q41.748 72.107 40.906 68.738L40.906 68.738ZM40.503 14.795L43.433 14.319Q43.433 17.139 48.926 21.790L48.926 21.790L48.926 23.071Q47.241 28.564 46.838 34.058L46.838 34.058Q50.208 34.021 54.822 32.227L54.822 32.227Q63.684 34.241 63.684 38.416L63.684 38.416Q63.684 43.066 53.577 43.213L53.577 43.213Q50.793 43.286 46.399 43.762L46.399 43.762L46.399 44.202Q46.399 45.044 46.838 53.467L46.838 53.467Q60.315 51.965 62.000 51.086L62.000 51.086L61.157 49.841L62.000 49.841L62.000 49.402Q60.535 48.999 60.315 48.999L60.315 48.999L60.315 48.596L60.754 48.596Q74.231 50.464 74.231 52.991L74.231 52.991Q75.293 52.954 76.355 57.605L76.355 57.605L76.355 58.850Q73.499 63.135 69.177 63.208L69.177 63.208Q56.030 63.025 52.295 63.062L52.295 63.062Q52.039 63.062 46.838 63.574L46.838 63.574Q47.241 74.194 47.241 80.457L47.241 80.457L47.241 84.265Q47.241 89.172 38.818 96.643L38.818 96.643Q35.266 91.553 33.325 83.240L33.325 83.240Q34.167 81.812 34.167 80.676L34.167 80.676L34.167 78.992L33.728 78.149Q35.010 78.149 35.010 76.465L35.010 76.465Q35.010 75.403 35.413 65.479L35.413 65.479L35.010 65.479Q24.792 68.188 10.107 72.656L10.107 72.656Q6.519 72.729 4.211 63.904L4.211 63.904L4.211 62.659Q8.313 57.751 10.950 56.616L10.950 56.616L10.950 57.458L11.792 57.019L12.231 57.019L11.792 57.861L12.634 57.861L12.231 58.704L12.231 59.143L13.916 59.106L35.413 55.371L35.413 46.509L35.010 46.509Q33.801 46.509 27.429 48.743L27.429 48.743L26.587 48.743Q25.818 48.779 21.936 47.168L21.936 47.168Q19.885 51.416 16.882 52.734L16.882 52.734L16.443 51.892L15.601 52.332L15.198 52.332L15.198 51.489L13.074 51.965L12.634 51.965L13.477 50.684L13.477 50.244Q11.865 51.563 9.705 51.599L9.705 51.599L8.020 51.599L8.020 51.196Q16.150 42.810 18.127 33.289L18.127 33.289Q17.615 33.325 16.040 30.396L16.040 30.396Q17.029 30.359 21.094 24.829L21.094 24.829Q29.883 28.564 31.641 30.945L31.641 30.945L31.641 32.629Q31.641 35.083 29.956 37.317L29.956 37.317L30.359 37.317Q35.010 36.914 35.010 35.962L35.010 35.962L35.010 30.469Q32.886 23.730 32.886 22.485L32.886 22.485Q33.325 21.790 33.325 20.398L33.325 20.398L34.167 20.361Q34.167 22.046 35.010 22.046L35.010 22.046L35.010 20.764Q35.010 19.519 33.728 17.432L33.728 17.432Q36.694 17.358 36.694 16.113L36.694 16.113Q36.292 15.308 36.292 14.868L36.292 14.868L40.503 14.795Z" />
  </g>
</svg>