<svg width="84.566" height="117.525" viewBox="-2 -2 84.566 117.525" xmlns="http://www.w3.org/2000/svg">
  <g id="svgGroup" stroke-linecap="round" fill-rule="nonzero" fill="#000000" stroke="#000000" stroke-width="0.5">
      <path d="M47.461 79.321L47.461 79.321L47.461 80.164L48.303 80.127Q48.303 79.285 47.461 79.321ZM45.776 78.516L45.776 78.516L45.337 80.603L45.337 83.972L45.776 83.972Q46.619 83.972 46.619 83.130L46.619 83.130L46.619 79.321Q46.619 78.479 45.776 78.516ZM66.797 77.307L66.394 77.307Q66.394 80.750 65.955 84.045L65.955 84.045Q66.797 84.009 66.797 82.764L66.797 82.764L66.797 77.307ZM50.793 79.688L50.793 79.688L50.793 82.617L61.743 82.434L61.743 76.538Q60.132 77.307 53.320 78.772L53.320 78.772Q53.320 79.614 50.793 79.688ZM31.458 71.191L31.018 71.191L31.018 77.087L31.458 77.051L31.458 71.191ZM30.615 66.138L30.176 66.138Q30.176 69.250 29.773 75.842L29.773 75.842L29.773 76.685L30.176 76.685L30.615 72.876L30.615 66.138ZM60.901 63.940L51.636 66.211L51.636 68.298L51.233 71.265Q56.836 69.910 58.374 69.873L58.374 69.873Q58.777 69.873 61.340 71.924L61.340 71.924L61.340 68.115L60.901 63.940ZM48.303 56.177L47.864 56.177L46.179 58.704L46.179 59.546Q46.838 59.546 48.303 56.177L48.303 56.177ZM48.706 56.580L48.706 56.580L48.706 56.982Q49.548 56.982 49.548 56.140L49.548 56.140L49.548 55.701Q48.706 55.847 48.706 56.580ZM36.511 60.168L36.511 60.168L36.511 60.571Q39.038 58.850 42.810 57.532L42.810 57.532L43.250 57.495L43.250 57.935Q42.480 57.935 36.072 61.414L36.072 61.414Q35.376 61.450 33.545 60.608L33.545 60.608L33.545 69.873Q36.035 69.836 41.125 62.183L41.125 62.183L41.125 60.901L40.283 60.938L40.283 60.498Q43.066 60.461 44.934 57.056L44.934 57.056Q44.092 57.495 43.652 57.495L43.652 57.495L43.250 57.495L43.250 57.092Q45.776 56.616 45.776 55.774L45.776 55.774L45.337 55.774Q38.708 58.118 36.511 60.168ZM62.585 52.954L62.585 52.954L62.585 53.394L66.394 53.320Q67.053 53.320 71.448 52.808L71.448 52.808L71.448 52.405L68.921 52.441Q63.611 52.954 62.585 52.954ZM66.797 50.793L66.797 50.793L66.797 51.196L69.763 51.160Q70.605 51.160 70.605 50.317L70.605 50.317L70.166 50.317Q67.859 50.757 66.797 50.793ZM68.921 49.475L65.955 49.548L65.955 49.951L68.921 49.915L68.921 49.475ZM53.320 42.188L52.917 42.188Q52.917 45.154 52.478 45.557L52.478 45.557L53.320 45.557L53.320 42.188ZM63.867 41.602L63.428 41.602Q63.428 42.444 61.743 44.568L61.743 44.568L66.394 44.495L66.394 44.055Q66.394 43.469 63.867 41.602L63.867 41.602ZM37.354 47.498L37.354 47.498L37.756 47.498Q42.517 43.213 44.092 43.176L44.092 43.176Q37.756 47.900 37.756 49.622L37.756 49.622Q47.021 47.461 47.021 45.667L47.021 45.667L47.021 44.824L45.337 42.737L44.495 43.176L44.092 43.176L44.495 42.334Q44.092 42.334 44.092 41.931L44.092 41.931L44.934 41.931L45.776 42.334L45.776 41.895L46.619 42.297Q47.205 42.297 47.864 41.016L47.864 41.016L47.864 38.928L47.461 38.928Q44.055 40.100 37.354 47.498ZM51.233 38.452L50.793 38.452L50.793 45.593L51.636 45.593L52.075 43.469Q52.075 41.748 51.233 38.452L51.233 38.452ZM60.059 36.182L55.005 36.255L55.005 37.097Q55.005 39.221 54.602 43.433L54.602 43.433Q56.177 42.444 60.059 36.182L60.059 36.182ZM35.229 36.621L35.229 36.621Q34.387 38.745 32.300 41.309L32.300 41.309Q33.142 48.633 33.142 50.098L33.142 50.098Q38.049 45.264 42.407 41.528L42.407 41.528Q38.232 41.602 35.229 36.621ZM34.827 34.094L34.387 34.094Q34.387 34.937 31.860 37.500L31.860 37.500L31.860 39.185Q32.373 39.185 34.827 35.376L34.827 35.376L34.827 34.094ZM52.075 15.271L54.163 14.832Q56.763 19.849 60.059 19.775L60.059 19.775Q60.498 20.581 60.498 21.021L60.498 21.021Q59.070 23.987 58.374 24.023L58.374 24.023L57.971 24.023L57.971 23.181L57.532 23.181L57.532 26.111Q56.580 26.147 56.287 24.060L56.287 24.060L55.847 24.060L55.847 26.990Q61.743 26.880 61.743 24.390L61.743 24.390L64.709 24.316Q70.239 24.207 71.851 27.136L71.851 27.136L71.851 27.979Q71.851 29.517 65.552 39.038L65.552 39.038Q76.904 42.773 76.904 48.926L76.904 48.926Q76.904 53.540 67.236 53.723L67.236 53.723Q53.760 53.943 53.760 56.470L53.760 56.470L52.478 58.594L52.917 58.594Q55.884 58.411 62.183 55.481L62.183 55.481Q70.166 57.239 70.166 60.388L70.166 60.388Q70.605 60.388 71.008 61.670L71.008 61.670Q69.324 62.329 69.324 62.952L69.324 62.952Q68.921 81.445 68.921 88.623L68.921 88.623L69.324 88.623Q69.324 92.395 62.585 95.471L62.585 95.471L62.183 95.471Q61.230 95.471 57.971 90.491L57.971 90.491L47.864 92.358L47.021 92.358Q41.125 90.784 41.125 85.730L41.125 85.730Q41.931 85.291 42.407 85.291L42.407 85.291L42.407 76.465Q38.635 79.468 36.914 79.504L36.914 79.504L36.511 79.504Q36.072 79.504 33.545 76.611L33.545 76.611L33.545 82.507Q31.274 91.809 24.316 91.919L24.316 91.919L23.877 91.919Q20.544 87.122 15.051 86.609L15.051 86.609Q9.961 84.412 8.716 82.507L8.716 82.507L9.558 82.507Q11.938 83.716 12.927 83.716L12.927 83.716Q12.561 82.397 8.313 80.823L8.313 80.823Q8.313 80.566 6.189 78.772L6.189 78.772Q10.876 79.944 12.085 79.944L12.085 79.944L12.524 79.907L12.524 79.504Q8.203 78.516 6.189 76.245L6.189 76.245L6.628 76.245Q19.409 80.640 23.035 80.566L23.035 80.566Q24.316 78.040 24.316 71.741L24.316 71.741L24.316 64.563Q14.063 72.729 11.682 72.803L11.682 72.803L11.243 72.803Q8.093 72.839 4.944 66.174L4.944 66.174L7.874 66.138Q7.874 65.112 4.504 64.929L4.504 64.929L4.504 64.490L6.628 64.453Q6.628 63.611 4.944 63.647L4.944 63.647L4.944 63.208Q8.606 63.171 23.877 53.650L23.877 53.650L23.474 51.563L23.474 49.878L23.035 49.878Q17.578 52.478 16.296 52.515L16.296 52.515Q15.894 51.709 15.894 51.270L15.894 51.270L13.770 51.709L13.770 51.306L14.612 50.024L12.524 50.464L9.558 50.537L9.558 50.098Q11.243 50.061 12.085 48.376L12.085 48.376Q10.181 49.255 7.874 49.292L7.874 49.292Q4.065 48.523 3.662 48.523L3.662 48.523L3.662 48.120Q11.206 47.974 19.263 39.844L19.263 39.844Q19.226 39.258 14.209 36.548L14.209 36.548Q12.817 37.427 10.400 37.463L10.400 37.463Q12.085 33.948 12.085 33.655L12.085 33.655Q11.682 33.655 11.682 33.252L11.682 33.252Q9.814 33.875 8.313 34.973L8.313 34.973L7.874 34.973L7.874 34.570Q8.313 33.728 8.313 33.289L8.313 33.289L7.874 33.289Q5.566 35.449 5.347 35.449L5.347 35.449L5.347 35.046Q7.141 30.798 10.840 30.725L10.840 30.725Q16.296 28.125 17.578 28.088L17.578 28.088Q19.739 28.894 25.159 31.750L25.159 31.750L25.562 29.626L25.562 28.381Q25.562 26.477 23.035 23.364L23.035 23.364L31.860 21.533Q38.599 24.536 38.599 29.407L38.599 29.407L42.407 27.246Q43.213 27.649 43.652 27.649L43.652 27.649Q42.810 29.004 42.810 29.736L42.810 29.736L43.250 29.736Q47.021 29.260 47.021 28.418L47.021 28.418L47.021 27.576Q47.021 22.925 44.092 21.313L44.092 21.313L44.092 20.911Q47.461 16.077 47.461 15.381L47.461 15.381L52.075 15.271Z" />
  </g>
</svg>