<svg width="84.566" height="117.525" viewBox="-2 -2 84.566 117.525" xmlns="http://www.w3.org/2000/svg">
  <g id="svgGroup" stroke-linecap="round" fill-rule="nonzero" fill="#000000" stroke="#000000" stroke-width="0.5">
      <path d="M60.315 91.992L55.115 92.065L55.115 92.468L60.315 92.395L60.315 91.992ZM59.912 90.784L47.095 91.809L47.095 92.212L49.512 92.175Q51.672 92.139 60.718 91.187L60.718 91.187L60.718 90.784L59.912 90.784ZM38.306 83.972L37.903 83.972L37.903 86.755L38.672 86.353Q38.672 87.964 42.700 90.308L42.700 90.308L42.700 89.905Q38.306 87.122 38.306 83.972L38.306 83.972ZM37.500 81.958L36.694 81.995L36.694 84.778L37.500 84.778L37.500 81.958ZM36.694 81.189L36.694 81.189L36.694 81.592L37.500 81.555L37.500 80.383Q36.694 80.493 36.694 81.189ZM37.097 79.175L36.694 79.175L36.694 79.980L37.097 79.980L37.097 79.175ZM55.115 69.250L55.115 69.250Q60.718 71.448 60.718 75.146L60.718 75.146Q59.766 79.980 57.935 80.017L57.935 80.017L57.129 79.614L56.323 79.651Q54.089 79.688 50.317 80.530L50.317 80.530Q53.101 78.296 53.101 78.076L53.101 78.076L52.332 77.710L49.109 79.761L48.706 79.761Q48.706 79.578 51.123 76.941L51.123 76.941L49.512 76.941L49.512 76.538Q50.720 76.538 50.720 75.732L50.720 75.732L49.109 75.769L49.109 75.366L49.915 75.330L49.915 74.927L47.498 75L48.706 73.352L48.706 72.949Q47.900 71.960 47.900 71.777L47.900 71.777Q52.295 69.287 55.115 69.250ZM38.306 48.303L38.306 48.303Q39.478 50.317 39.478 52.295L39.478 52.295Q39.478 55.481 37.903 55.518L37.903 55.518L37.903 55.920L38.672 55.920Q48.303 54.968 48.303 51.746L48.303 51.746L48.303 50.537Q48.303 47.314 46.692 47.351L46.692 47.351Q43.835 47.388 38.306 48.303ZM21.057 45.813L21.057 45.813Q21.057 46.106 20.654 48.193L20.654 48.193Q22.668 53.467 23.071 58.594L23.071 58.594Q24.060 58.557 28.271 57.678L28.271 57.678Q27.283 50.098 24.243 50.134L24.243 50.134L24.646 49.329Q24.390 49.329 21.057 45.813ZM16.663 41.858L15.857 41.895L15.857 42.297L16.663 42.261L16.663 41.858ZM26.257 37.280L26.257 37.280L25.854 37.317L23.877 36.951Q22.888 38.672 17.432 41.858L17.432 41.858L17.432 42.261L18.237 41.858L19.043 41.821Q20.654 44.202 21.460 44.202L21.460 44.202Q31.458 42.810 31.458 40.796L31.458 40.796L30.688 40.833L29.077 41.638L29.077 41.235Q35.486 34.131 35.486 33.911L35.486 33.911L35.486 33.545Q28.308 37.244 26.257 37.280ZM22.668 15.710L23.877 15.710Q24.646 15.674 34.277 20.728L34.277 20.728L34.277 21.533Q33.289 26.770 30.286 26.807L30.286 26.807Q29.480 26.953 29.480 27.612L29.480 27.612L29.883 27.612L30.688 27.209L30.688 27.612L41.895 22.998Q46.399 24.609 48.706 28.491L48.706 28.491Q49.109 29.187 49.109 30.066L49.109 30.066Q49.109 34.204 43.909 35.779L43.909 35.779Q39.734 39.441 37.500 40.320L37.500 40.320L37.500 40.686L37.903 40.686L52.734 37.244L53.101 37.244Q57.935 37.134 61.121 48.303L61.121 48.303L61.121 49.109L58.337 51.563Q53.247 64.453 49.915 64.526L49.915 64.526Q49.146 64.929 48.706 64.966L48.706 64.966Q40.320 64.709 37.097 64.746L37.097 64.746L36.694 65.552L36.694 65.955L39.075 65.918L41.895 65.479Q42.188 67.603 45.520 71.008L45.520 71.008L45.520 72.217Q44.312 76.648 43.103 76.648L43.103 76.648Q43.103 75.476 42.297 75.476L42.297 75.476Q41.492 76.941 41.492 78.699L41.492 78.699L41.492 81.116Q41.492 85.913 49.512 85.767L49.512 85.767L52.734 85.730Q64.746 85.071 64.746 82.288Q64.746 79.504 62.732 72.729L62.732 72.729Q63.940 72.693 65.149 78.296L65.149 78.296L65.552 78.259L65.552 76.685L65.149 73.865L65.149 73.462L65.552 73.462Q66.760 76.978 66.760 78.662L66.760 78.662L67.126 78.662L67.126 76.648L67.529 76.648Q68.665 81.042 74.341 86.133L74.341 86.133L74.341 86.536Q72.107 94.189 64.343 94.336L64.343 94.336Q53.979 95.325 47.095 95.435L47.095 95.435Q33.472 95.654 33.472 92.065L33.472 92.065L33.069 89.648L33.069 88.843Q33.875 76.904 33.875 76.428L33.875 76.428Q33.875 76.135 33.472 74.011L33.472 74.011L32.666 74.048Q27.942 84.302 19.446 92.688L19.446 92.688L18.640 93.127Q18.640 91.919 17.834 91.919L17.834 91.919L16.260 93.164L16.260 92.761Q16.663 91.333 16.663 91.150L16.663 91.150L16.663 90.747L16.260 90.747Q15.417 92.761 12.634 92.834L12.634 92.834L14.246 90.381L13.843 90.381Q10.803 92.871 6.226 92.944L6.226 92.944Q10.474 90.308 16.260 82.727L16.260 82.727Q21.204 77.783 25.049 67.346L25.049 67.346L24.646 67.383Q18.750 70.276 17.834 70.313L17.834 70.313L17.432 70.313Q14.282 70.349 10.217 64.819L10.217 64.819L10.217 64.014Q10.913 59.180 14.246 59.143L14.246 59.143Q10.217 49.219 10.217 47.607L10.217 47.607Q10.217 45.264 15.454 41.895L15.454 41.895Q15.857 41.089 15.857 40.686L15.857 40.686Q14.539 41.492 13.440 41.528L13.440 41.528L12.634 41.528L13.843 39.917Q11.499 41.162 9.814 41.199L9.814 41.199L9.814 40.393Q19.446 28.857 19.446 24.207L19.446 24.207Q19.446 22.412 17.029 20.215L17.029 20.215Q18.823 20.178 22.668 15.710L22.668 15.710Z" />
  </g>
</svg>