<svg width="84.566" height="117.525" viewBox="-2 -2 84.566 117.525" xmlns="http://www.w3.org/2000/svg">
  <g id="svgGroup" stroke-linecap="round" fill-rule="nonzero" fill="#000000" stroke="#000000" stroke-width="0.5">
      <path d="M18.164 78.223L17.725 78.259L17.725 82.874Q18.567 82.874 18.567 82.031L18.567 82.031L18.567 80.347L18.164 78.223ZM36.694 75.366L36.694 75.366L36.292 77.490L36.292 82.141L36.694 82.141Q37.573 82.104 37.573 81.262L37.573 81.262L37.573 76.208Q37.573 75.366 36.694 75.366ZM38.416 72.839L38.416 72.839L38.416 75.366L38.818 77.454Q40.100 77.014 40.100 74.890L40.100 74.890L40.100 74.048Q40.100 73.425 38.416 72.839ZM43.030 72.327L42.188 72.327L42.188 80.786L42.627 80.750Q47.717 77.307 50.208 77.271L50.208 77.271L51.050 77.234L50.208 73.462L49.805 73.462Q49.365 73.462 49.365 73.901L49.365 73.901L48.523 73.499L47.681 73.499L43.469 74.011L43.872 73.132Q43.030 73.169 43.030 72.327L43.030 72.327ZM22.375 70.569L22.375 70.569L22.375 71.008Q22.778 77.344 22.778 79.834L22.778 79.834Q25.562 78.113 29.114 78.040L29.114 78.040L30.798 78.003L32.922 78.406L32.922 75.439Q31.860 76.318 31.641 76.318L31.641 76.318L27.869 75.952L25.745 76.428Q24.463 73.096 24.463 72.656L24.463 72.656Q24.902 72.620 24.902 72.217L24.902 72.217Q22.778 70.569 22.375 70.569ZM43.030 63.464L43.030 63.464L43.030 64.709Q43.030 65.295 49.365 66.724L49.365 66.724Q49.365 67.163 49.805 67.126L49.805 67.126L49.805 66.724L49.365 63.757L47.241 63.794Q45.996 63.831 43.872 65.149L43.872 65.149Q43.872 63.464 43.030 63.464ZM24.463 62.512L23.621 62.109Q23.621 64.270 22.375 67.603L22.375 67.603L22.375 69.324L22.778 69.287Q22.778 68.445 23.621 68.445L23.621 68.445L23.218 67.603L25.305 67.163Q32.922 68.591 32.922 72.510L32.922 72.510L33.325 72.473L33.325 64.490L31.641 65.771L30.798 65.369Q28.015 66.248 26.587 66.284L26.587 66.284Q25.305 65.149 24.463 62.512L24.463 62.512ZM19.849 55.847L19.849 56.287Q20.801 58.374 23.218 58.337L23.218 58.337Q23.218 57.605 26.147 57.422L26.147 57.422L28.271 57.385Q32.483 57.312 32.483 59.839L32.483 59.839L32.922 59.839L32.922 57.751L31.238 56.067L32.080 56.067L32.080 55.225L31.238 55.225L31.238 54.822L32.080 54.785Q32.080 53.833 29.956 53.577L29.956 53.577L29.956 53.137Q32.996 53.101 36.694 52.185L36.694 52.185Q40.613 52.112 43.872 56.287L43.872 56.287L47.241 56.213Q47.241 54.529 50.208 50.684L50.208 50.684L50.208 50.281L47.681 50.317Q35.706 50.500 19.849 55.847L19.849 55.847ZM38.818 32.336L38.818 31.897L39.661 31.897L39.661 32.300L40.942 32.300L40.942 31.860Q39.661 31.897 39.661 31.055L39.661 31.055L40.100 31.055Q41.052 31.018 41.785 31.421L41.785 31.421Q43.103 31.421 51.489 29.590L51.489 29.590Q52.844 29.553 55.701 31.604L55.701 31.604L56.104 30.762L56.104 29.480Q56.104 28.821 54.419 27.832L54.419 27.832Q50.647 29.150 49.365 29.187L49.365 29.187Q46.802 28.381 43.469 24.243L43.469 24.243L43.469 23.401Q43.469 20.032 50.208 19.885L50.208 19.885L62.036 16.333Q67.932 24.097 67.932 28.015L67.932 28.015Q67.932 29.297 64.563 33.142L64.563 33.142Q60.352 44.531 60.352 49.255L60.352 49.255Q58.557 50.537 56.946 50.574L56.946 50.574Q57.788 53.320 62.439 55.518L62.439 55.518L62.439 56.360Q59.509 62.219 59.509 63.171L59.509 63.171L59.070 63.171Q58.667 61.707 58.667 61.487L58.667 61.487L58.228 61.523L58.228 63.208Q58.228 79.688 64.563 83.752L64.563 83.752L66.248 83.716Q69.324 81.042 71.301 75.183L71.301 75.183L71.741 75.183L71.741 76.025Q71.741 77.124 70.898 80.273L70.898 80.273Q71.741 80.237 72.583 77.271L72.583 77.271L72.986 77.271L72.986 78.113Q72.144 80.823 72.144 81.079L72.144 81.079L72.144 81.519L72.583 81.519Q72.583 80.237 73.425 80.237L73.425 80.237Q73.425 82.104 74.670 86.938L74.670 86.938L72.986 91.626Q72.986 92.358 73.828 93.713L73.828 93.713Q72.546 96.680 67.932 96.753L67.932 96.753Q59.290 96.936 53.577 84.778L53.577 84.778L52.734 84.814Q45.410 90.125 39.258 95.581L39.258 95.581L37.134 96.057L35.852 96.057Q33.179 96.094 29.553 90.674L29.553 90.674Q31.201 90.234 32.483 90.234L32.483 90.234L32.483 89.795Q29.480 89.429 29.114 89.429L29.114 89.429L29.114 89.026L30.798 88.989Q30.798 88.147 29.114 88.184L29.114 88.184L29.114 87.744Q31.165 87.708 33.325 86.389L33.325 86.389Q32.922 85.767 32.922 83.899L32.922 83.899Q28.784 85.840 17.725 95.544L17.725 95.544Q16.553 96.606 13.074 97.302L13.074 97.302Q10.620 97.339 6.775 91.516L6.775 91.516L9.302 91.040L9.302 90.637Q8.936 90.637 5.933 90.271L5.933 90.271L5.933 89.832L8.020 89.795L8.020 89.392L6.335 88.989L6.335 88.550Q13.074 88.440 13.074 82.947L13.074 82.947Q12.671 82.983 12.671 82.544L12.671 82.544Q13.110 82.544 13.916 82.104L13.916 82.104L13.513 80.017L13.513 66.943Q13.513 64.526 11.389 59.802L11.389 59.802L11.389 58.521L11.829 58.521L13.074 59.363L11.829 56.836L12.671 56.836L13.513 57.239Q13.513 55.957 15.601 55.920L15.601 55.920L12.231 50.500Q12.231 48.083 13.916 45.850L13.916 45.850Q9.705 28.271 9.705 26.514L9.705 26.514L9.705 26.074Q9.705 24.976 16.040 22.192L16.040 22.192Q20.947 23.767 22.375 23.767L22.375 23.767Q23.218 22.375 23.218 21.643L23.218 21.643Q22.449 18.274 21.533 18.274L21.533 18.274Q23.145 14.026 27.869 13.953L27.869 13.953Q35.852 13.806 37.573 21.387L37.573 21.387Q37.976 21.387 38.416 22.632L38.416 22.632Q38.416 25.415 22.778 29.663L22.778 29.663L22.375 30.505L22.375 33.032L31.641 30.762Q34.570 30.725 37.976 35.303L37.976 35.303Q37.976 38.086 24.463 41.016L24.463 41.016L24.463 41.418L24.902 42.261L24.463 42.261Q24.902 42.993 24.902 43.945L24.902 43.945Q42.920 41.528 51.489 38.855L51.489 38.855Q52.222 39.258 53.174 39.258L53.174 39.258L53.577 39.221Q54.016 37.756 54.016 37.537L54.016 37.537L53.577 37.537Q44.385 39.587 44.312 39.807L44.312 39.807Q42.004 39.880 38.818 33.582L38.818 33.582L40.942 33.984L41.345 33.984L39.661 32.300L38.818 32.336Z" />
  </g>
</svg>