<svg width="85.445" height="117.525" viewBox="-2.439 -2 85.445 117.525" xmlns="http://www.w3.org/2000/svg">
  <g id="svgGroup" stroke-linecap="round" fill-rule="nonzero" fill="#000000" stroke="#000000" stroke-width="0.5">
      <path d="M70.459 74.963L70.020 74.963Q70.020 77.856 69.617 80.054L69.617 80.054L69.617 80.457L70.020 80.457Q70.020 80.127 70.459 77.930L70.459 77.930L70.459 74.963ZM43.030 69.543L43.030 69.104L43.872 69.104L43.872 69.543L43.030 69.543ZM70.020 68.665L69.617 68.665Q69.177 75.842 68.335 79.651L68.335 79.651Q69.763 79.614 70.020 71.191L70.020 71.191L70.020 68.665ZM43.030 67.419L43.030 67.419Q40.869 66.614 39.661 66.650L39.661 66.650Q39.661 70.020 36.694 72.180L36.694 72.180L42.590 68.701Q42.590 69.360 43.433 70.386L43.433 70.386Q42.590 70.532 42.590 71.228L42.590 71.228L43.030 71.228Q59.070 68.701 59.070 67.566L59.070 67.566Q64.380 69.690 65.808 72.949L65.808 72.949Q65.808 77.454 52.295 79.065L52.295 79.065L52.295 79.504L62.439 80.603Q66.064 80.530 67.090 62.366L67.090 62.366L66.650 62.366Q47.937 66.101 43.030 67.419ZM48.523 54.675L48.083 54.675L48.083 57.642Q49.768 57.202 51.050 57.166L51.050 57.166L51.050 56.323Q50.208 56.360 48.523 54.675L48.523 54.675ZM54.858 54.163L54.858 54.163Q54.858 55.737 52.295 56.323L52.295 56.323L52.295 56.726L54.419 56.287L55.701 56.250L55.701 54.968Q55.701 54.126 54.858 54.163ZM46.838 42.480L46.838 42.480L46.838 42.920Q46.838 43.579 53.979 45.740L53.979 45.740Q55.371 49.512 56.104 49.475L56.104 49.475L56.543 49.475Q57.788 41.382 57.788 38.928L57.788 38.928Q46.838 41.638 46.838 42.480ZM43.433 28.198L43.030 28.198Q43.030 28.748 40.906 32.043L40.906 32.043L41.345 32.043L43.433 28.638L43.433 28.198ZM45.996 25.195L45.557 25.232L45.154 27.319L45.154 27.759L45.557 27.759Q45.996 26.257 45.996 26.038L45.996 26.038L45.996 25.195ZM42.590 16.003L42.590 16.003Q52.295 17.651 52.295 22.559L52.295 22.559L52.734 22.559L48.083 31.091L49.768 31.055Q50.720 31.018 59.912 27.063L59.912 27.063L59.912 26.660Q66.138 26.550 71.704 30.652L71.704 30.652L71.704 32.776L72.986 34.424L72.986 34.863Q72.253 34.863 70.862 35.742L70.862 35.742Q70.862 35.303 70.459 35.339L70.459 35.339L70.459 36.182L70.862 36.987Q68.774 37.024 68.774 41.272L68.774 41.272Q68.335 42.004 65.808 53.540L65.808 53.540L67.493 52.258Q78.882 55.005 78.882 58.374L78.882 58.374Q81.006 60.022 81.006 62.146L81.006 62.146Q76.135 62.219 73.828 83.350L73.828 83.350Q73.828 91.003 63.684 94.482L63.684 94.482L62.439 94.519Q61.963 94.519 57.788 88.696L57.788 88.696L52.734 84.119L54.858 84.521L55.261 84.521L55.261 84.082Q54.529 84.119 49.365 82.068L49.365 82.068L49.365 81.665L50.208 81.665Q52.954 82.434 53.979 82.434L53.979 82.434L54.419 82.434L54.419 81.995Q49.658 79.980 49.365 79.980L49.365 79.980Q41.821 83.057 40.503 83.093L40.503 83.093Q38.049 82.434 34.607 77.271L34.607 77.271L34.607 75.586Q34.607 74.194 35.852 72.620L35.852 72.620Q34.277 72.656 32.483 71.411L32.483 71.411Q29.150 72.729 28.271 72.766L28.271 72.766L29.114 70.642L27.429 69.397L27.429 68.115L27.832 67.273L26.990 67.310Q20.837 76.758 14.758 80.164L14.758 80.164Q14.355 78.699 14.355 78.479L14.355 78.479L13.916 78.479L12.231 79.797L11.792 79.797L12.231 77.673L12.231 77.234Q10.107 78.552 8.862 78.589L8.862 78.589L7.581 78.589Q7.581 78.186 9.265 76.025L9.265 76.025L8.862 76.062Q5.676 77.783 2.966 77.820L2.966 77.820Q-0.073 77.454-0.439 77.454L-0.439 77.454L-0.439 77.051Q13.037 71.851 18.970 61.121L18.970 61.121L18.970 60.278Q3.149 53.357 2.527 53.394L2.527 53.394L2.527 52.954L4.651 52.515L4.651 52.075L3.809 52.075L3.809 51.672Q4.248 51.672 5.054 51.233L5.054 51.233L4.651 50.391L4.651 49.951L6.738 49.512L6.335 48.669L6.738 48.669Q12.927 49.402 22.339 51.782L22.339 51.782Q23.218 48.560 23.218 45.850L23.218 45.850L23.218 44.568Q22.009 44.604 12.231 48.560L12.231 48.560Q7.690 46.655 3.809 41.968L3.809 41.968Q5.493 41.931 5.493 40.686L5.493 40.686L5.493 40.247L3.809 39.880L3.809 39.001L5.896 38.965Q20.801 29.883 24.902 29.810L24.902 29.810Q31.238 31.311 35.449 37.610L35.449 37.610L35.852 40.137Q35.852 42.004 32.483 44.861L32.483 44.861L29.114 54.602L29.956 55.005L30.798 55.005L33.325 45.667L34.167 45.667L34.167 46.069Q34.167 49.841 32.043 56.250L32.043 56.250Q34.680 57.532 36.694 59.106L36.694 59.106Q40.613 56.506 41.345 56.506L41.345 56.506Q37.976 45.154 37.976 42.627L37.976 42.627L38.379 39.697Q33.948 35.413 33.765 32.996L33.765 32.996Q35.486 33.838 36.292 33.801L36.292 33.801Q43.030 22.778 43.030 20.618L43.030 20.618Q42.590 16.882 42.590 16.003Z" />
  </g>
</svg>