<svg width="84.566" height="117.525" viewBox="-2 -2 84.566 117.525" xmlns="http://www.w3.org/2000/svg">
  <g id="svgGroup" stroke-linecap="round" fill-rule="nonzero" fill="#000000" stroke="#000000" stroke-width="0.5">
      <path d="M39.441 70.129L38.672 70.129Q36.731 76.685 35.596 81.885L35.596 81.885L35.596 82.617L35.962 82.581Q38.049 76.868 39.441 70.129L39.441 70.129ZM51.746 54.675L51.746 54.675L51.746 55.042L53.284 55.005Q53.613 55.005 61.377 53.430L61.377 53.430L61.377 53.101L60.608 53.101Q53.906 54.639 51.746 54.675ZM39.844 51.709L39.844 51.709L39.844 52.039Q39.844 53.101 42.920 54.822L42.920 54.822L43.286 54.822L43.286 54.456Q42.297 54.492 39.844 51.709ZM43.286 51.270L42.517 51.306Q42.920 51.892 42.920 52.698L42.920 52.698L43.286 52.698L43.286 51.270ZM43.286 50.574L42.517 50.574L42.517 50.940L43.286 50.940L43.286 50.574ZM62.512 43.140L62.146 43.140Q62.146 48.120 54.822 48.230L54.822 48.230Q44.458 48.706 44.458 49.841L44.458 49.841Q44.824 51.270 46.765 51.233L46.765 51.233L49.438 51.160Q63.684 49.622 63.684 47.388L63.684 47.388L62.512 43.140ZM33.655 40.466L25.964 42.004L26.367 43.762L26.367 45.190L25.964 45.923L32.520 42.261Q33.765 42.920 34.424 42.920L34.424 42.920L34.424 43.286Q33.289 43.286 33.289 44.019L33.289 44.019L34.058 43.982Q35.962 43.945 35.962 43.250L35.962 43.250Q35.962 41.162 33.655 40.466L33.655 40.466ZM48.303 17.175L48.303 16.809L49.072 16.809L49.072 17.139L48.303 17.175ZM39.075 13.440L39.075 13.440L39.844 13.403Q46.765 14.282 46.765 17.542L46.765 17.542L47.534 17.175L48.303 17.175L47.900 17.871Q48.010 18.604 48.669 18.567L48.669 18.567L49.072 18.567Q51.746 18.530 58.301 14.868L58.301 14.868Q63.684 15.417 63.684 18.677L63.684 18.677Q62.695 23.657 60.608 23.694L60.608 23.694L49.072 26.367L46.765 26.404L46.765 28.894L46.362 29.590L46.765 29.590Q48.340 29.553 64.050 26.807L64.050 26.807Q71.008 29.736 71.008 32.373L71.008 32.373L71.008 33.069Q70.349 36.987 66.760 37.061L66.760 37.061L60.205 37.170Q47.644 37.390 46.765 39.185L46.765 39.185L45.996 41.675L46.362 41.638Q55.225 40.100 55.225 39.368L55.225 39.368Q57.385 39.771 61.743 42.078L61.743 42.078L61.743 41.382L62.146 41.382Q63.464 44.531 64.050 44.531L64.050 44.531Q63.281 41.895 63.281 41.711L63.281 41.711Q64.270 41.711 64.819 44.861L64.819 44.861L65.222 44.861L65.222 43.799L65.588 43.799Q65.588 45.337 71.008 49.036L71.008 49.036L71.008 49.365Q68.774 55.078 63.684 55.188L63.684 55.188Q53.979 57.129 52.917 57.129L52.917 57.129L52.917 57.495L54.053 57.458Q56.177 57.092 57.129 57.056L57.129 57.056Q57.129 58.740 62.512 61.560L62.512 61.560L62.512 61.926Q60.608 66.614 60.608 68.005L60.608 68.005L59.070 66.614L58.667 66.614Q58.667 67.822 57.898 72.656L57.898 72.656Q57.898 83.276 62.512 83.203L62.512 83.203Q64.563 82.581 68.298 75.659L68.298 75.659L68.298 75.293L68.701 75.293L68.701 77.417L68.298 79.541L68.298 79.907L68.701 79.907Q69.836 77.307 69.836 76.685L69.836 76.685L70.239 76.685L70.239 77.747L69.470 80.603L69.470 80.933L69.836 80.933Q69.836 79.541 70.605 79.504L70.605 79.504Q70.605 81.189 72.144 84.814L72.144 84.814L72.144 86.206Q70.605 88.147 70.605 89.429L70.605 89.429Q71.191 89.429 71.777 90.820L71.777 90.820Q70.825 93.347 65.991 93.420L65.991 93.420Q60.535 93.494 54.456 88.293L54.456 88.293Q48.303 79.651 48.303 71.045L48.303 71.045Q48.669 68.005 48.669 66.431L48.669 66.431Q41.492 70.093 39.844 70.129L39.844 70.129L39.844 71.558Q39.844 79.578 33.289 89.722L33.289 89.722Q33.032 89.722 29.810 92.981L29.810 92.981L29.443 92.981L29.443 91.919L28.674 91.956Q28.674 93.018 27.905 93.018L27.905 93.018L27.502 93.018L27.905 91.260L27.905 90.894L27.502 90.894Q27.209 92.688 24.426 92.725L24.426 92.725L25.964 90.198L25.598 90.234Q25.598 91.296 21.350 92.432L21.350 92.432L19.043 92.468L19.043 92.102Q24.500 92.029 30.981 67.090L30.981 67.090Q30.469 64.490 27.905 62.549L27.905 62.549L33.289 58.557L34.424 58.521Q36.841 58.484 39.844 61.633L39.844 61.633L40.210 61.597Q50.610 59.656 50.610 58.228L50.610 58.228L50.977 57.532Q41.858 58.374 39.075 58.447L39.075 58.447Q36.987 58.484 35.962 51.746L35.962 51.746L32.117 52.881L31.750 52.881Q28.638 52.954 25.195 48.413L25.195 48.413L25.598 46.619Q24.829 46.655 24.829 47.717L24.829 47.717Q24.060 61.377 24.060 64.380L24.060 64.380L24.060 77.490Q24.060 87.488 17.908 90.710L17.908 90.710L16.736 92.871L16.370 92.871Q15.601 91.370 15.601 91.113L15.601 91.113L14.063 92.542L13.660 92.542L13.660 90.417Q11.096 92.249 9.448 92.285L9.448 92.285L10.986 89.429Q8.020 91.589 5.200 91.626L5.200 91.626Q4.468 91.296 4.028 91.296L4.028 91.296L4.028 90.967Q12.378 83.936 13.660 76.611L13.660 76.611Q15.198 65.771 15.198 52.844L15.198 52.844Q15.198 43.066 10.217 40.173L10.217 40.173Q9.448 39.807 9.045 39.807L9.045 39.807L9.045 39.111L9.814 39.111L9.045 37.683Q9.045 34.534 17.505 31.531L17.505 31.531Q18.201 31.860 19.043 31.860L19.043 31.860L19.043 32.190L18.274 32.227L18.274 32.593L19.043 32.556L19.043 32.922L18.274 32.922L18.274 33.655L18.677 33.618Q36.365 31.494 36.365 30.835L36.365 30.835Q36.365 18.091 33.655 18.127L33.655 18.127L33.655 17.761Q34.424 17.761 34.424 17.065L34.424 17.065Q33.691 16.699 33.289 16.736L33.289 16.736L33.289 16.370L34.424 16.333L34.424 15.637L32.520 15.308L32.520 14.941Q33.362 14.941 39.075 13.440Z" />
  </g>
</svg>